<?xml version="1.0" standalone="no"?>
<!DOCTYPE svg PUBLIC "-//W3C//DTD SVG 20010904//EN"
 "http://www.w3.org/TR/2001/REC-SVG-20010904/DTD/svg10.dtd">
<svg version="1.0" xmlns="http://www.w3.org/2000/svg"
 width="500.000000pt" height="500.000000pt" viewBox="0 0 500.000000 500.000000"
 preserveAspectRatio="xMidYMid meet">

<g transform="translate(0.000000,500.000000) scale(0.100000,-0.100000)"
fill="#000000" stroke="none">
<path d="M2385 3599 c-265 -24 -546 -172 -725 -380 -162 -188 -252 -414 -267
-667 l-6 -112 -61 155 c-34 85 -65 154 -71 152 -5 -2 -20 -30 -32 -63 -92
-235 -223 -575 -223 -579 0 -3 29 -5 64 -5 l64 0 57 163 c32 89 61 170 65 181
4 12 27 -40 71 -160 l64 -179 42 -3 c40 -3 42 -5 63 -58 38 -93 151 -253 241
-340 182 -177 404 -279 660 -305 463 -46 895 197 1105 622 l37 77 48 5 c171
21 287 192 258 380 -21 131 -102 226 -222 261 -38 11 -39 13 -71 106 -164 490
-640 798 -1161 749z m-29 -58 c-3 -4 -33 -18 -67 -30 -93 -35 -64 -35 36 -1
48 17 93 29 98 27 5 -1 -22 -28 -61 -60 -39 -31 -91 -83 -117 -116 -54 -69
-63 -74 -106 -59 -28 10 -30 14 -25 42 l5 31 -15 -28 c-13 -24 -20 -28 -42
-23 -26 5 -26 5 -4 -6 31 -15 24 -41 -13 -49 l-30 -7 28 -1 c15 0 27 -6 27
-13 0 -7 5 -5 13 4 17 23 87 35 87 16 0 -8 -6 -20 -12 -28 -7 -7 3 -1 21 14
28 22 42 27 68 23 20 -4 31 -2 28 4 -4 5 -19 9 -36 9 -16 0 -29 5 -29 10 0 6
35 47 78 92 77 81 194 168 200 149 2 -5 10 -7 18 -4 24 9 44 -17 45 -61 l2
-41 6 35 7 35 42 -45 c39 -40 112 -141 112 -153 0 -3 -7 -13 -16 -21 -14 -15
-13 -16 10 -16 14 0 28 -5 31 -11 5 -6 11 -4 19 7 11 14 24 16 82 11 39 -3 58
-2 44 2 l-25 8 28 12 c16 6 33 11 39 11 6 0 9 3 6 6 -3 3 -30 -2 -59 -10 -56
-17 -117 -21 -135 -8 -6 4 -28 34 -48 66 -21 33 -63 86 -93 117 l-55 58 94 -3
c61 -3 86 -1 73 5 -14 6 -2 8 34 4 31 -2 62 -11 70 -20 15 -15 13 -16 -14 -11
-16 4 -6 -3 24 -14 29 -11 60 -25 68 -32 8 -6 26 -13 41 -14 22 -2 18 2 -20
22 -26 13 -49 28 -53 34 -21 33 122 -20 160 -60 31 -32 25 -38 -15 -15 -45 26
-46 16 -1 -11 l43 -26 -26 -26 c-25 -26 -25 -26 -48 -7 -13 11 -17 13 -10 5 6
-8 12 -18 12 -22 0 -16 -22 -7 -73 30 -55 41 -89 62 -72 45 6 -5 30 -25 55
-43 68 -52 121 -103 117 -115 -5 -13 26 -42 40 -38 13 5 93 -88 142 -165 18
-28 35 -52 38 -52 9 0 -71 119 -121 178 -20 24 -33 48 -30 53 3 5 -1 9 -10 9
-16 0 -66 55 -66 74 0 7 13 25 29 40 25 24 32 26 52 17 l24 -12 -22 17 c-24
17 -31 44 -11 44 23 0 188 -142 188 -162 0 -5 -28 12 -62 39 -35 28 -70 53
-78 57 -8 4 -2 -3 15 -16 63 -49 175 -150 175 -158 0 -4 -34 3 -76 16 -43 14
-82 23 -88 21 -6 -2 12 -9 39 -16 28 -7 76 -24 107 -38 54 -24 60 -30 93 -96
19 -38 35 -78 35 -87 0 -17 -29 -46 -76 -78 -11 -7 -5 -5 11 3 17 8 40 22 52
31 22 16 23 15 33 -11 6 -16 17 -62 24 -104 l13 -76 -51 -17 c-28 -10 -57 -16
-63 -13 -7 2 -13 -3 -13 -11 0 -10 -6 -14 -14 -11 -7 3 -56 15 -107 27 -52 12
-100 24 -106 26 -21 6 -15 52 9 68 l22 16 -21 0 c-16 0 -23 7 -26 28 -4 25 -4
25 -6 -5 -1 -24 -6 -33 -18 -34 -17 -1 -17 -2 0 -6 11 -3 17 -14 17 -35 0 -21
-4 -29 -13 -25 -8 3 -43 8 -80 12 -37 4 -64 11 -61 16 3 5 -1 9 -9 9 -8 0 -19
15 -25 33 l-11 32 5 -32 6 -33 -109 -1 c-67 0 -100 -4 -88 -9 16 -6 10 -9 -25
-12 -25 -3 13 -5 84 -4 95 1 130 -2 133 -11 4 -10 -16 -13 -76 -13 l-81 0 0
-60 0 -60 94 0 c106 0 99 5 111 -87 l7 -53 -90 0 c-50 0 -97 -3 -106 -6 -13
-5 -16 -27 -16 -134 l0 -128 -31 -11 c-40 -14 -149 -14 -149 -1 0 6 34 11 78
12 l77 2 -75 5 -75 6 1 220 2 220 -8 -195 c-4 -107 -8 -208 -9 -223 -1 -27 -3
-28 -43 -25 -41 3 -43 5 -64 58 -21 51 -23 71 -24 263 0 140 3 207 11 207 6 0
8 9 4 20 -6 19 -2 20 60 20 61 0 66 -2 60 -19 -7 -23 6 -33 25 -20 12 8 12 12
2 16 -21 8 -2 23 30 23 17 0 28 3 25 6 -3 4 -51 6 -107 5 l-100 -1 -2 57 -1
58 -6 -55 -6 -55 -50 -6 -50 -6 47 -1 c48 -2 70 -15 42 -26 -11 -4 -13 -10 -7
-19 6 -7 8 -76 4 -177 l-6 -164 -65 167 c-36 92 -69 166 -74 164 -6 -2 -51
-107 -100 -235 -50 -127 -92 -229 -95 -227 -13 14 -51 327 -51 426 0 68 1 68
140 70 52 0 104 4 115 9 12 5 -24 8 -95 7 -155 -1 -160 1 -160 67 0 67 22 141
71 238 22 43 37 78 34 78 -3 0 -23 -35 -44 -77 -39 -75 -40 -77 -42 -43 -1 21
-7 0 -15 -53 -8 -48 -18 -96 -24 -107 -13 -24 -13 -33 0 -25 7 4 10 -12 9 -44
-2 -42 -5 -51 -21 -51 -19 0 -24 15 -8 25 14 9 2 25 -14 19 -7 -3 -12 -15 -12
-27 1 -31 -68 -45 -233 -46 l-133 -1 5 30 c4 16 17 51 29 77 17 36 28 47 43
46 11 -1 14 0 8 3 -24 10 -13 37 51 133 88 131 154 201 192 202 26 1 26 2 6 7
-21 7 -19 10 28 50 29 25 57 41 65 38 8 -3 12 0 9 7 -4 11 81 77 99 77 5 0 5
-10 2 -22 -5 -16 1 -11 19 13 14 20 32 39 42 43 9 3 14 12 11 20 -9 22 35 56
84 65 60 12 81 13 75 2z m-171 -11 c-3 -5 -12 -10 -18 -10 -7 0 -48 -13 -91
-30 -44 -16 -82 -28 -84 -25 -7 7 62 38 123 56 72 21 78 22 70 9z m-5 -39
c-11 -22 -42 -47 -119 -96 -61 -40 -67 -41 -95 -17 -21 17 -21 17 -3 -4 9 -11
17 -25 16 -30 -1 -18 -122 -114 -143 -114 -16 0 -18 -2 -7 -9 10 -7 1 -23 -40
-74 -30 -36 -74 -99 -99 -141 -25 -41 -49 -74 -55 -72 -5 2 -9 18 -8 37 l2 34
-11 -28 -10 -28 -26 23 -26 23 26 -32 c17 -21 25 -41 22 -55 l-5 -23 11 23 c5
13 14 21 20 17 12 -8 -9 -55 -25 -55 -7 0 -16 -20 -20 -46 -3 -25 -15 -54 -26
-65 -12 -12 -19 -33 -19 -59 0 -36 -4 -42 -42 -66 -24 -15 -54 -36 -67 -48
l-24 -21 6 70 c4 39 15 105 26 147 20 78 88 238 101 238 4 0 11 11 14 24 9 36
53 84 99 107 35 18 39 19 33 4 -4 -11 5 -7 27 11 21 19 29 31 20 34 -19 8 88
142 143 179 27 17 54 29 61 27 7 -3 13 -1 13 4 0 16 47 42 129 71 94 35 116
37 101 10z m-439 -245 c-35 -50 -76 -86 -100 -86 -9 0 10 26 49 65 35 36 68
65 73 65 4 0 -6 -20 -22 -44z m1617 -66 c13 -16 18 -30 13 -30 -5 0 -19 14
-31 30 -12 17 -17 30 -13 30 5 0 19 -13 31 -30z m73 -112 c8 -15 8 -18 0 -14
-6 4 -16 16 -22 28 -8 15 -8 18 0 14 6 -4 16 -16 22 -28z m50 -120 c27 -54 69
-164 69 -183 0 -10 -10 -15 -30 -15 -23 0 -31 5 -34 23 -2 12 -14 63 -25 112
-24 105 -24 105 -11 105 5 0 19 -19 31 -42z m-413 -195 c17 -3 32 -10 32 -15
0 -6 -8 -7 -17 -3 -10 5 -46 10 -80 13 -35 2 -63 9 -63 14 0 10 36 7 128 -9z
m-1117 -10 c1 -17 2 -17 6 0 3 10 14 17 29 17 23 0 24 -3 24 -62 0 -80 15
-224 36 -356 9 -56 14 -105 11 -108 -3 -3 -33 -2 -66 2 -54 6 -64 10 -76 35
-23 44 -19 112 9 146 57 68 72 155 41 230 -8 19 -16 45 -16 57 -1 15 -2 17 -6
4 -4 -15 -8 -14 -38 5 -49 32 -46 36 33 46 6 0 13 -7 13 -16z m1282 -24 c45
-11 85 -23 90 -26 4 -2 -9 -23 -29 -45 -67 -75 -92 -172 -72 -283 7 -38 12
-74 13 -80 0 -5 -31 -17 -70 -26 -38 -9 -61 -17 -50 -18 11 0 46 5 77 13 l58
13 21 -33 c11 -19 38 -49 61 -68 35 -30 38 -37 28 -56 -8 -15 -17 -19 -28 -15
-38 15 -45 15 -19 0 15 -8 27 -19 27 -23 0 -13 -68 -122 -110 -177 -66 -88
-116 -135 -141 -136 -20 0 -21 -2 -6 -8 16 -6 11 -13 -32 -49 -27 -23 -53 -42
-58 -42 -4 0 -14 -10 -22 -22 -13 -21 -13 -22 3 -9 13 11 22 12 44 2 23 -10
25 -9 10 2 -16 12 -13 18 30 59 26 26 64 55 85 66 21 11 33 22 27 24 -7 2 2
20 21 43 17 22 62 86 99 143 57 86 69 100 80 87 7 -8 18 -15 26 -15 19 0 44
-41 44 -73 0 -36 -30 -79 -74 -106 -47 -29 -60 -27 -43 7 8 15 18 38 21 52 4
14 -8 -4 -26 -40 -26 -51 -40 -67 -68 -77 -19 -7 -25 -11 -13 -9 13 2 25 1 27
-3 9 -14 -96 -142 -141 -173 -37 -25 -49 -29 -63 -20 -14 8 -17 7 -16 -6 0 -9
-16 -25 -37 -37 -49 -28 -196 -79 -204 -71 -10 10 57 75 99 97 20 10 40 24 44
30 4 6 -14 -1 -40 -16 -49 -28 -54 -26 -31 15 8 14 14 30 15 35 0 6 -13 -12
-29 -40 -18 -32 -43 -58 -67 -72 -44 -24 -212 -78 -220 -71 -2 3 21 25 51 48
31 24 85 78 121 122 36 43 68 78 70 78 17 0 74 -31 74 -41 0 -9 3 -9 14 0 7 6
22 9 32 6 12 -4 11 -2 -3 6 -26 14 -29 24 -10 36 9 5 11 16 6 33 -4 15 -7 18
-8 8 -1 -22 -31 -38 -71 -38 l-31 0 31 55 c17 30 29 55 26 55 -2 0 -19 -25
-37 -56 l-32 -56 -66 6 c-41 4 -58 2 -46 -3 17 -8 15 -9 -15 -14 -19 -2 -2 -3
38 -2 39 1 72 -2 72 -7 0 -19 -196 -206 -237 -227 l-43 -21 -1 27 c-1 26 -3
24 -15 -15 -7 -24 -44 6 -44 36 0 21 -2 24 -10 12 -8 -12 -15 -9 -45 20 -37
36 -115 145 -115 161 0 5 24 10 53 11 l52 1 -55 7 c-30 4 -46 8 -35 10 15 2
12 4 -10 9 -39 8 -73 71 -132 241 -34 99 -40 126 -29 128 8 2 22 26 32 54 l16
51 61 -7 c33 -3 77 -6 98 -6 22 0 39 -5 39 -10 0 -6 8 -27 17 -48 9 -20 20
-46 24 -57 7 -19 7 -19 8 3 1 20 6 22 52 22 48 0 51 1 45 23 -20 72 -21 69 10
65 l29 -3 -2 -120 -1 -120 10 115 c5 63 12 117 15 120 2 3 43 7 89 9 l84 3 0
-46 0 -47 63 3 62 3 3 48 3 49 42 -7 c23 -4 44 -9 45 -10 2 -2 4 -34 5 -72 1
-59 -5 -80 -40 -161 -43 -96 -45 -122 -3 -31 22 46 25 49 31 28 4 -17 8 -5 14
41 4 35 14 82 21 104 16 45 18 57 4 36 -7 -11 -10 -7 -10 18 0 33 19 47 21 15
0 -11 3 -13 6 -5 2 6 19 12 36 13 18 0 25 3 17 6 -8 2 -22 7 -30 10 -8 3 -23
5 -32 4 -11 -1 -18 4 -18 15 0 12 6 15 25 12 14 -3 25 -1 25 3 0 5 12 10 28
10 24 2 25 2 4 6 -22 4 -23 8 -17 41 14 82 26 107 57 127 54 33 78 79 78 147
0 68 -16 113 -53 147 -27 25 -27 41 -1 41 9 0 52 -9 97 -21z m-1714 -175 c-6
-49 -14 -106 -18 -128 l-6 -39 -34 29 c-58 49 -70 112 -29 162 17 20 90 73 95
68 2 -2 -1 -44 -8 -92z m2059 82 c2 -2 2 -14 0 -25 l-3 -21 -32 22 c-18 13
-33 27 -33 32 0 8 58 1 68 -8z m-1998 -50 c0 -30 3 -61 6 -70 5 -12 0 -16 -20
-16 -25 0 -26 -2 -26 -65 0 -37 -4 -65 -10 -65 -17 0 -16 54 1 188 9 70 14 82
30 82 16 0 19 -8 19 -54z m250 34 c12 -12 20 -33 20 -54 0 -55 -25 -66 -146
-66 -116 0 -114 -2 -114 86 l0 54 110 0 c97 0 112 -2 130 -20z m1218 -4 c23
-23 19 -76 -7 -98 -29 -23 -58 -23 -65 0 -2 9 -8 41 -11 71 l-7 54 38 -6 c21
-4 44 -13 52 -21z m422 -133 c-21 -162 -44 -176 -55 -35 -13 160 -14 152 25
173 l35 19 3 -37 c2 -20 -2 -74 -8 -120z m171 126 c77 -55 100 -200 46 -292
-18 -30 -42 -54 -67 -67 -22 -11 -41 -20 -43 -20 -2 0 3 33 11 73 8 39 15 129
16 199 0 71 3 128 4 128 2 0 17 -9 33 -21z m-87 -29 c27 -30 36 -49 36 -75 l0
-35 -26 17 c-21 14 -31 15 -56 5 -25 -9 -29 -9 -24 4 3 9 6 40 6 70 0 67 13
70 64 14z m-148 -143 c6 -71 4 -91 -7 -98 -27 -17 -38 -9 -50 34 -14 51 -7
120 18 171 l17 38 8 -29 c4 -15 11 -68 14 -116z m-1097 -85 l40 -112 -47 -2
-47 -1 45 -4 c25 -3 50 -9 55 -15 10 -10 -3 -9 -129 8 l-44 6 41 118 c23 65
43 118 44 116 1 -1 20 -52 42 -114z m-805 -60 c6 -70 35 -212 51 -254 4 -11 3
-18 -4 -18 -15 0 -52 76 -45 93 3 8 -15 68 -41 133 -25 66 -48 137 -52 158
l-6 40 45 -37 c45 -37 45 -38 52 -115z m1980 86 c-10 -16 -22 -7 -17 13 4 15
8 17 14 8 4 -7 5 -17 3 -21z m102 -5 c-4 -21 -11 -62 -17 -90 l-10 -53 -39 0
c-22 0 -50 5 -64 12 -26 11 -27 25 -5 85 8 22 62 57 71 47 7 -7 58 17 58 28 0
4 3 8 6 8 3 0 3 -17 0 -37z m-1696 0 c0 -22 -2 -25 -10 -13 -13 20 -13 40 0
40 6 0 10 -12 10 -27z m1165 -35 c-9 -57 -26 -92 -47 -96 -13 -3 -17 8 -20 62
-3 70 -1 72 50 75 22 1 23 -1 17 -41z m-1303 -8 l17 -40 -27 6 c-59 15 -72 23
-72 49 0 22 4 25 33 25 28 0 34 -5 49 -40z m1222 -21 c8 -71 3 -79 -56 -79
l-38 0 0 70 0 70 44 0 43 0 7 -61z m-1435 -52 l-2 -92 -12 90 c-12 91 -11 110
6 100 5 -4 8 -48 8 -98z m1871 37 c0 -22 -2 -25 -15 -14 -8 7 -15 19 -15 26 0
8 7 14 15 14 10 0 15 -10 15 -26z m-1671 -14 c33 -9 45 -19 61 -50 29 -58 26
-65 -35 -82 l-56 -16 -15 27 -15 26 6 -32 c6 -28 3 -34 -27 -49 -18 -9 -45
-26 -60 -37 -31 -23 -34 -22 -43 16 l-7 27 55 0 c32 0 59 5 63 12 4 6 7 49 6
96 -1 68 1 83 13 78 7 -2 32 -10 54 -16z m300 -56 c10 -9 -9 -15 -50 -17 -34
-2 -44 2 -47 15 -3 16 2 17 45 11 26 -3 50 -7 52 -9z m521 -4 c0 -5 -15 -10
-34 -10 -19 0 -38 5 -41 10 -4 6 10 10 34 10 23 0 41 -4 41 -10z m-535 -61
c-8 -23 -15 -43 -15 -45 0 -2 20 -4 44 -4 l44 0 36 -108 c20 -60 52 -141 71
-181 19 -40 33 -77 29 -82 -3 -5 -25 -9 -49 -9 -24 0 -46 -4 -50 -9 -3 -6 21
-9 57 -8 l62 2 41 -61 c22 -34 64 -89 93 -123 60 -69 54 -74 -40 -36 -34 14
-63 23 -65 21 -2 -2 16 -12 42 -21 61 -24 64 -33 7 -24 -64 11 -82 10 -57 -2
14 -7 5 -8 -33 -5 -33 2 -60 10 -70 20 -16 16 -15 17 13 11 18 -3 11 2 -19 14
-59 24 -77 40 -116 101 -48 75 -39 79 41 19 49 -36 102 -70 89 -56 -3 3 -33
26 -68 51 -35 26 -60 51 -57 56 3 6 -2 10 -13 10 -20 0 -66 43 -56 53 4 3 -1
13 -10 22 -9 9 -16 13 -16 9 0 -13 -50 39 -103 106 -57 73 -74 93 -62 70 13
-22 54 -79 98 -132 32 -40 36 -48 20 -49 -10 0 -2 -5 17 -12 21 -7 42 -25 53
-45 l20 -33 -29 -30 c-15 -16 -33 -29 -39 -29 -20 0 -117 72 -183 137 -53 51
-62 63 -42 59 69 -16 71 -15 16 8 -76 32 -90 46 -125 131 -23 55 -27 73 -18
84 16 19 98 71 112 71 6 0 22 -21 34 -47 12 -27 31 -59 42 -73 11 -14 3 7 -18
47 -43 81 -42 85 30 107 47 14 48 14 59 -10 6 -13 19 -24 29 -24 13 0 20 -14
28 -62 l10 -63 -5 63 -5 62 46 0 c49 0 51 3 30 40 -22 39 -22 39 52 49 9 1 8
-10 -2 -40z m1361 -65 c-3 -8 -10 -13 -16 -9 -6 3 -5 16 3 32 9 21 13 23 15 9
2 -9 1 -24 -2 -32z m92 18 l40 -7 -30 -65 c-28 -62 -30 -64 -40 -40 -5 14 -20
36 -33 50 -29 31 -25 85 5 75 10 -3 36 -9 58 -13z m-118 -268 c0 -9 -112 -124
-121 -124 -17 0 53 101 79 115 29 15 42 18 42 9z m-1572 -132 c31 -27 78 -63
105 -81 26 -18 47 -38 47 -46 0 -21 -7 -19 -59 19 -51 38 -170 156 -157 156 4
0 33 -22 64 -48z m256 -107 c20 -30 36 -58 36 -63 0 -4 14 -16 30 -25 62 -37
23 -44 -57 -10 -42 17 -103 71 -103 91 0 16 37 62 50 62 4 0 24 -25 44 -55z
m924 -85 c-37 -20 -148 -53 -155 -46 -5 4 158 64 177 65 8 0 -2 -9 -22 -19z
m-168 0 c0 -17 -61 -49 -107 -56 -73 -11 -68 1 13 33 92 36 94 36 94 23z
m-265 -100 c4 -6 -5 -10 -19 -10 -14 0 -26 5 -26 10 0 6 9 10 19 10 11 0 23
-4 26 -10z"/>
<path d="M2625 3520 c27 -12 43 -12 25 0 -8 5 -22 9 -30 9 -10 0 -8 -3 5 -9z"/>
<path d="M2748 3523 c7 -3 16 -2 19 1 4 3 -2 6 -13 5 -11 0 -14 -3 -6 -6z"/>
<path d="M2680 3500 c8 -5 20 -10 25 -10 6 0 3 5 -5 10 -8 5 -19 10 -25 10 -5
0 -3 -5 5 -10z"/>
<path d="M2482 3475 c0 -16 2 -22 5 -12 2 9 2 23 0 30 -3 6 -5 -1 -5 -18z"/>
<path d="M2760 3466 c0 -3 14 -12 30 -21 17 -9 30 -13 30 -11 0 3 -13 12 -30
21 -16 9 -30 13 -30 11z"/>
<path d="M2472 3400 c0 -19 2 -27 5 -17 2 9 2 25 0 35 -3 9 -5 1 -5 -18z"/>
<path d="M2560 3345 c-1 -27 -2 -54 -1 -59 1 -4 -3 -14 -9 -21 -8 -9 -6 -14 5
-19 12 -4 15 -28 15 -132 0 -70 2 -125 5 -123 2 3 5 71 6 152 l1 147 51 2 52
1 -55 6 -55 6 -6 45 -6 45 -3 -50z"/>
<path d="M2457 3320 c-7 -28 1 -46 14 -33 6 6 6 19 1 33 l-9 24 -6 -24z"/>
<path d="M2317 3293 c18 -2 50 -2 70 0 21 2 7 4 -32 4 -38 0 -55 -2 -38 -4z"/>
<path d="M2333 3263 c15 -2 39 -2 55 0 15 2 2 4 -28 4 -30 0 -43 -2 -27 -4z"/>
<path d="M2451 3213 c1 -65 5 -61 12 10 2 26 1 47 -4 47 -5 0 -9 -26 -8 -57z"/>
<path d="M2623 3263 c9 -2 25 -2 35 0 9 3 1 5 -18 5 -19 0 -27 -2 -17 -5z"/>
<path d="M2943 3263 c9 -2 23 -2 30 0 6 3 -1 5 -18 5 -16 0 -22 -2 -12 -5z"/>
<path d="M1968 3253 c7 -3 16 -2 19 1 4 3 -2 6 -13 5 -11 0 -14 -3 -6 -6z"/>
<path d="M2760 3237 c0 -4 11 -30 25 -57 13 -26 45 -108 70 -182 25 -73 43
-117 39 -98 -15 81 -131 374 -134 337z"/>
<path d="M3108 3233 c7 -3 16 -2 19 1 4 3 -2 6 -13 5 -11 0 -14 -3 -6 -6z"/>
<path d="M2061 3214 c0 -11 3 -14 6 -6 3 7 2 16 -1 19 -3 4 -6 -2 -5 -13z"/>
<path d="M2051 3174 c0 -11 3 -14 6 -6 3 7 2 16 -1 19 -3 4 -6 -2 -5 -13z"/>
<path d="M3051 3164 c0 -11 3 -14 6 -6 3 7 2 16 -1 19 -3 4 -6 -2 -5 -13z"/>
<path d="M2042 3130 c0 -14 2 -19 5 -12 2 6 2 18 0 25 -3 6 -5 1 -5 -13z"/>
<path d="M3061 3124 c0 -11 3 -14 6 -6 3 7 2 16 -1 19 -3 4 -6 -2 -5 -13z"/>
<path d="M3071 3084 c0 -11 3 -14 6 -6 3 7 2 16 -1 19 -3 4 -6 -2 -5 -13z"/>
<path d="M2442 3055 c0 -16 2 -22 5 -12 2 9 2 23 0 30 -3 6 -5 -1 -5 -18z"/>
<path d="M3081 3034 c0 -11 3 -14 6 -6 3 7 2 16 -1 19 -3 4 -6 -2 -5 -13z"/>
<path d="M3245 2970 c9 -16 18 -30 21 -30 2 0 -2 14 -11 30 -9 17 -18 30 -21
30 -2 0 2 -13 11 -30z"/>
<path d="M3092 2965 c0 -16 2 -22 5 -12 2 9 2 23 0 30 -3 6 -5 -1 -5 -18z"/>
<path d="M3276 2894 c-3 -7 -23 -18 -46 -25 -22 -7 -38 -14 -36 -17 3 -2 25 3
50 11 42 14 47 14 57 -1 9 -15 10 -15 6 -1 -3 9 -1 21 4 26 7 7 3 12 -10 16
-11 3 -22 -1 -25 -9z"/>
<path d="M1720 2880 c8 -5 20 -10 25 -10 6 0 3 5 -5 10 -8 5 -19 10 -25 10 -5
0 -3 -5 5 -10z"/>
<path d="M1828 2843 c7 -3 16 -2 19 1 4 3 -2 6 -13 5 -11 0 -14 -3 -6 -6z"/>
<path d="M1868 2833 c7 -3 16 -2 19 1 4 3 -2 6 -13 5 -11 0 -14 -3 -6 -6z"/>
<path d="M3310 2839 c0 -4 7 -22 15 -40 8 -19 14 -27 14 -19 0 14 -28 72 -29
59z"/>
<path d="M1908 2823 c6 -2 18 -2 25 0 6 3 1 5 -13 5 -14 0 -19 -2 -12 -5z"/>
<path d="M2985 2810 c-27 -7 -27 -8 -5 -8 14 0 39 4 55 8 27 7 27 8 5 8 -14 0
-38 -4 -55 -8z"/>
<path d="M2303 2773 c15 -2 39 -2 55 0 15 2 2 4 -28 4 -30 0 -43 -2 -27 -4z"/>
<path d="M1646 3065 c-9 -26 -7 -32 5 -12 6 10 9 21 6 23 -2 3 -7 -2 -11 -11z"/>
<path d="M3110 2160 c34 -11 60 -11 35 0 -11 5 -29 8 -40 8 -16 0 -15 -2 5 -8z"/>
<path d="M3178 2143 c7 -3 16 -2 19 1 4 3 -2 6 -13 5 -11 0 -14 -3 -6 -6z"/>
<path d="M3250 2120 c8 -5 20 -10 25 -10 6 0 3 5 -5 10 -8 5 -19 10 -25 10 -5
0 -3 -5 5 -10z"/>
<path d="M3361 1993 c-1 -6 -4 -20 -7 -30 -5 -17 -5 -17 6 0 6 10 9 23 6 30
-3 9 -5 9 -5 0z"/>
<path d="M2951 1884 c0 -11 3 -14 6 -6 3 7 2 16 -1 19 -3 4 -6 -2 -5 -13z"/>
<path d="M2543 1835 c0 -22 2 -30 4 -17 2 12 2 30 0 40 -3 9 -5 -1 -4 -23z"/>
<path d="M2420 1800 c-5 -54 -6 -55 -40 -61 l-35 -6 38 -2 c24 -1 37 -6 36
-13 -3 -26 1 -39 11 -33 6 4 8 15 5 26 -4 11 -2 19 6 19 8 0 8 4 1 13 -6 7
-12 35 -14 62 l-4 50 -4 -55z"/>
<path d="M2941 1834 c0 -11 3 -14 6 -6 3 7 2 16 -1 19 -3 4 -6 -2 -5 -13z"/>
<path d="M2931 1794 c0 -11 3 -14 6 -6 3 7 2 16 -1 19 -3 4 -6 -2 -5 -13z"/>
<path d="M2529 1749 c-1 -8 -2 -20 -3 -27 0 -7 -7 -16 -14 -21 -11 -7 -10 -10
3 -15 24 -9 37 2 30 25 -6 17 -1 19 52 21 l58 2 -50 3 c-27 3 -55 9 -62 15
-10 8 -13 7 -14 -3z"/>
<path d="M3028 1743 c6 -2 18 -2 25 0 6 3 1 5 -13 5 -14 0 -19 -2 -12 -5z"/>
<path d="M2968 1733 c6 -2 18 -2 25 0 6 3 1 5 -13 5 -14 0 -19 -2 -12 -5z"/>
<path d="M2522 1620 c0 -19 2 -27 5 -17 2 9 2 25 0 35 -3 9 -5 1 -5 -18z"/>
<path d="M2432 1600 c0 -19 2 -27 5 -17 2 9 2 25 0 35 -3 9 -5 1 -5 -18z"/>
<path d="M2512 1540 c0 -14 2 -19 5 -12 2 6 2 18 0 25 -3 6 -5 1 -5 -13z"/>
<path d="M1912 1950 c0 -14 2 -19 5 -12 2 6 2 18 0 25 -3 6 -5 1 -5 -13z"/>
<path d="M1921 1894 c0 -11 3 -14 6 -6 3 7 2 16 -1 19 -3 4 -6 -2 -5 -13z"/>
<path d="M1931 1854 c0 -11 3 -14 6 -6 3 7 2 16 -1 19 -3 4 -6 -2 -5 -13z"/>
<path d="M1828 1773 c7 -3 16 -2 19 1 4 3 -2 6 -13 5 -11 0 -14 -3 -6 -6z"/>
<path d="M1868 1763 c7 -3 16 -2 19 1 4 3 -2 6 -13 5 -11 0 -14 -3 -6 -6z"/>
<path d="M2013 1733 c9 -2 23 -2 30 0 6 3 -1 5 -18 5 -16 0 -22 -2 -12 -5z"/>
<path d="M2083 1723 c9 -2 23 -2 30 0 6 3 -1 5 -18 5 -16 0 -22 -2 -12 -5z"/>
<path d="M2190 1555 c0 -2 18 -14 40 -25 22 -11 40 -18 40 -15 0 2 -18 14 -40
25 -22 11 -40 18 -40 15z"/>
<path d="M2228 1473 c7 -3 16 -2 19 1 4 3 -2 6 -13 5 -11 0 -14 -3 -6 -6z"/>
<path d="M1960 1585 c0 -7 101 -57 106 -53 2 2 -21 16 -51 31 -30 15 -55 25
-55 22z"/>
<path d="M540 2690 l0 -60 129 0 c115 0 131 -2 155 -21 32 -25 35 -70 6 -99
-18 -18 -33 -20 -139 -20 -66 0 -126 -3 -135 -6 -14 -5 -16 -32 -16 -195 l0
-189 60 0 60 0 0 130 0 130 63 0 c171 0 270 86 254 221 -9 70 -38 113 -99 143
-49 24 -61 26 -195 26 l-143 0 0 -60z"/>
<path d="M3880 2690 l0 -60 129 0 c115 0 131 -2 155 -21 32 -25 35 -70 6 -99
-18 -18 -33 -20 -155 -20 l-135 0 0 -195 0 -195 60 0 60 0 0 130 0 130 63 0
c172 0 272 90 253 229 -9 64 -39 106 -98 135 -49 24 -61 26 -195 26 l-143 0 0
-60z"/>
<path d="M4357 2192 c-33 -37 -8 -92 41 -92 24 0 62 32 62 53 0 49 -70 75
-103 39z"/>
</g>
</svg>
